# xmcd
#
# Track frame offsets: 
#        150
#        21905
#        38345
#        64795
#        98992
#        122962
#        146207
#        172875
#        190722
#        211195
#        232000
#        244612
#        265640
#        291775
#
# Disc length: 4090 seconds
#
# Revision: 10
# Processed by: cddbd v1.5.2PL0 Copyright (c) Steve Scherf et al.
# Submitted via: ExactAudioCopy v0.99pb4
#
DISCID=c20ff80e
DTITLE=Steely Dan - A Decade of Steely Dan
DYEAR=1985
DGENRE=Rock
TTITLE0=FM
TTITLE1=Black Friday
TTITLE2=Babylon Sister
TTITLE3=Deacon Blues
TTITLE4=Bodhisattva
TTITLE5=Hey Nineteen
TTITLE6=Do It Again
TTITLE7=Peg
TTITLE8=Rikki Don't Lose That Number
TTITLE9=Reeling in the Years
TTITLE10=East St. Louis Toodle-Oo
TTITLE11=Kid Charlemagne
TTITLE12=My Old School
TTITLE13=Bad Sneakers
EXTD=
EXTT0=
EXTT1=
EXTT2=
EXTT3=
EXTT4=
EXTT5=
EXTT6=
EXTT7=
EXTT8=
EXTT9=
EXTT10=
EXTT11=
EXTT12=
EXTT13=
PLAYORDER=
